<?xml version="1.0" encoding="UTF-8"?>
<svg id="Layer_1" xmlns="http://www.w3.org/2000/svg" version="1.1" viewBox="0 0 100 100">
  <!-- Generator: Adobe Illustrator 29.1.0, SVG Export Plug-In . SVG Version: 2.1.0 Build 142)  -->
  <defs>
    <style>
      .st0 {
        fill: #fff;
      }
    </style>
  </defs>
  <circle class="st0" cx="22.3" cy="19.7" r="8.3"/>
  <path class="st0" d="M38,30.2h0s-29.6,0-29.6,0h0c-2.1,0-3.9,1.8-3.9,3.9h0v23.4h0c0,.9.3,1.8,1,2.5,1.4,1.4,3.6,1.4,4.9,0,.7-.7,1-1.6,1-2.5h0v-16.4h0c0-.6.5-1.1,1.1-1.1s1.1.5,1.1,1.1h0v42.9c0,2.2,1.8,4.1,4.1,4.1s4.1-1.8,4.1-4.1v-21.6h0c0-.6.5-1.1,1.1-1.1s1.1.5,1.1,1.1h0v21.6c0,2.2,1.8,4.1,4.1,4.1s4.1-1.8,4.1-4.1v-42.9c0-.6.5-1.1,1.1-1.1s1.1.5,1.1,1.1v16.4h0c0,.9.3,1.8,1,2.5,1.4,1.4,3.6,1.4,4.9,0,.7-.7,1-1.6,1-2.5h0v-23.4c0-2-1.5-3.7-3.5-3.9Z"/>
  <circle class="st0" cx="72.3" cy="19.8" r="8.3"/>
  <path class="st0" d="M95.5,54.2l-5.6-20.7s0,0,0,0v-.4c0,0-.1,0-.1,0-.5-1.6-2-2.7-3.7-2.7s0,0,0,0h0c0,0-26.1,0-26.1,0h0c-1.7,0-3.2,1.2-3.7,2.8h0s0,.4,0,.4c0,0,0,0,0,0l-5.5,20.7h0c0,.2,0,.4,0,.5,0,2,1.6,3.5,3.5,3.5s2.8-.9,3.3-2.2h0s4.1-15.2,4.1-15.2h0c0,0,0,0,0,0,.1-.5.5-.9,1.1-.9s1,.4,1.1.9h0v.2s0,0,0,0,0,0,0,0v.2l-6.5,24.3c-.1.2-.2.4-.2.7h0c0,0,0,0,0,0,0,0,0,0,0,0,0,1,.8,1.9,1.9,1.9h4.8v16.1c0,2.3,1.8,4.1,4.1,4.1s4.1-1.8,4.1-4.1v-16.1h2.3v16.1c0,2.3,1.8,4.1,4.1,4.1s4.1-1.8,4.1-4.1v-16.1h4.8c1,0,1.9-.8,1.9-1.9s0,0,0,0h0s0,0,0,0c0-.2,0-.5-.2-.7l-6.5-24.3h0c0-.1,0-.2,0-.3,0-.6.5-1.1,1.1-1.1s.9.4,1.1.9h0s4.1,15.2,4.1,15.2h0c.5,1.3,1.8,2.2,3.3,2.2s3.5-1.6,3.5-3.5,0-.3,0-.5h0Z"/>
</svg>