<?xml version="1.0" encoding="UTF-8"?>
<svg id="Layer_1" xmlns="http://www.w3.org/2000/svg" version="1.1" viewBox="0 0 304 536">
  <!-- Generator: Adobe Illustrator 29.1.0, SVG Export Plug-In . SVG Version: 2.1.0 Build 142)  -->
  <defs>
    <style>
      .st0 {
        fill-rule: evenodd;
      }

      .st0, .st1 {
        fill: #fff;
      }
    </style>
  </defs>
  <path class="st0" d="M89.1,196.9l-34.5,102c-4,11.7-16.7,18-28.5,14.1s-18-16.7-14.1-28.5l40.9-120.8c4.8-14.3,18.3-24,33.4-24h129c14.9,0,28.2,9.4,33.2,23.4l43.1,121c4.2,11.7-1.9,24.5-13.6,28.7-11.7,4.2-24.5-1.9-28.7-13.6l-34.6-97.2v301.3c0,11.6-9.7,21.1-21.5,21.1s-21.5-9.5-21.5-21.1v-150.6h-39.5v150.6c0,11.6-9.7,21.1-21.5,21.1s-21.5-9.5-21.5-21.1V196.9Z"/>
  <path class="st1" d="M203.3,62.8c0,28.3-23,51.3-51.3,51.3s-51.3-23-51.3-51.3,23-51.3,51.3-51.3,51.3,23,51.3,51.3Z"/>
</svg>